<?xml version="1.0" encoding="iso-8859-1"?>
<!-- Uploaded to: SVG Repo, www.svgrepo.com, Generator: SVG Repo Mixer Tools -->
<svg version="1.1" id="Layer_1" xmlns="http://www.w3.org/2000/svg" xmlns:xlink="http://www.w3.org/1999/xlink" 
	 viewBox="0 0 512.001 512.001" xml:space="preserve">
<rect x="330.183" y="119.118" style="fill:#003A7F;" width="83.612" height="27.188"/>
<path style="fill:#CE1128;" d="M456.962,161.985h-13.898c-16.164,0-29.269-13.104-29.269-29.269l0,0
	c0-16.164,13.104-29.269,29.269-29.269h13.898V161.985z"/>
<g>
	<rect x="138.468" y="170.578" style="fill:#003A7F;" width="117.528" height="37.71"/>
	<path style="fill:#003A7F;" d="M95.631,389.746c0,36.932,29.94,66.873,66.873,66.873s66.873-29.94,66.873-66.873H95.631z"/>
</g>
<path style="fill:#FFFFFF;" d="M133.247,389.746c0,16.158,13.099,29.257,29.257,29.257s29.257-13.099,29.257-29.257H133.247z"/>
<path style="fill:#003A7F;" d="M357.876,389.746c0,36.932,29.94,66.873,66.873,66.873s66.872-29.94,66.872-66.873H357.876z"/>
<path style="fill:#FFFFFF;" d="M395.491,389.746c0,16.158,13.099,29.257,29.257,29.257c16.158,0,29.257-13.099,29.257-29.257
	H395.491z"/>
<g>
	<path style="fill:#CE1128;" d="M341.838,389.746H67.048c-37.791,0-57.296-73.49,6.791-128.521s122.567-52.941,182.29-52.941
		c30.866,0,35.045,25.635,35.045,41.726s0,52.313,0,63.459c0,37.616,53.637,49.627,93.343-11.842s-1.045-155.317-1.045-155.317
		l30.324-0.001c0,0,32.717,75.716,43.166,163.487C375.113,327.053,341.838,389.746,341.838,389.746z"/>
	<path style="fill:#CE1128;" d="M347.946,389.746h153.598c0,0,1.516-60.255-44.582-79.949
		C456.962,309.796,381.73,318.345,347.946,389.746z"/>
</g>
<path d="M466.62,302.832c-7.001-53.738-21.676-101.999-31.991-131.309c2.721,0.591,5.541,0.911,8.436,0.911h13.898
	c5.771,0,10.449-4.678,10.449-10.449v-58.539c0-5.771-4.678-10.449-10.449-10.449h-13.898c-12.87,0-24.323,6.156-31.586,15.674
	h-81.296c-5.771,0-10.449,4.678-10.449,10.449v27.189c0,5.771,4.678,10.449,10.449,10.449h46.163
	c7.847,21.264,30.024,91.78-0.606,139.199c-20.624,31.927-45.088,41.73-60.183,37.275c-8.855-2.611-13.934-9.815-13.934-19.764
	V250.01c0-28.986-12.673-47.165-35.178-51.281v-28.15c0-5.771-4.678-10.449-10.449-10.449H138.464
	c-5.771,0-10.449,4.678-10.449,10.449v37.705c0,2.256,0.722,4.339,1.938,6.048c-20.518,8.225-41.458,20.535-62.922,38.966
	c-20.034,17.203-34.188,37.807-40.932,59.584c-5.973,19.286-5.942,38.872,0.087,55.147c7.35,19.84,23.007,32.165,40.862,32.165
	h18.859c5.119,37.709,37.506,66.872,76.596,66.872s71.476-29.164,76.596-66.872h102.738c1.044,0,2.06-0.167,3.03-0.462
	c0.974,0.3,2.006,0.462,3.078,0.462h0.206c5.119,37.709,37.506,66.872,76.596,66.872s71.476-29.164,76.596-66.872h0.2
	c5.668,0,10.303-4.519,10.446-10.187C512.056,387.361,513.003,327.134,466.62,302.832z M490.448,379.298H361.731
	c14.546-18.09,44.606-47.126,94.038-58.536C481.723,333.724,488.624,363.538,490.448,379.298z M440.375,400.195
	c-3.378,5.036-9.121,8.359-15.627,8.359s-12.249-3.323-15.627-8.359H440.375z M443.065,113.895h3.449v37.64h-3.449
	c-10.378,0-18.82-8.443-18.82-18.82S432.687,113.895,443.065,113.895z M340.632,129.571h62.715v6.291h-62.715V129.571z
	 M148.913,197.836v-16.807h96.635v16.799c-2.658-0.002-5.322,0-7.989,0.009h-88.646V197.836z M162.503,446.17
	c-27.541,0-50.522-19.84-55.438-45.975h17.137c4.6,16.839,20.023,29.257,38.3,29.257s33.701-12.417,38.3-29.257h17.137
	C213.026,426.33,190.044,446.17,162.503,446.17z M146.876,400.195h31.256c-3.378,5.036-9.121,8.359-15.627,8.359
	C155.998,408.554,150.254,405.231,146.876,400.195z M67.048,379.298c-3.066,0-6.003-0.818-8.72-2.33
	c3.28-7.8,7.442-15.299,12.407-22.307c23.839-33.643,63.767-53.728,106.808-53.728c16.099,0,31.791,2.759,46.639,8.2
	c5.419,1.986,11.421-0.798,13.406-6.216c1.985-5.419-0.798-11.421-6.216-13.406c-17.16-6.287-35.27-9.475-53.829-9.475
	c-49.806,0-96.108,23.38-123.859,62.545c-3.329,4.698-6.346,9.591-9.051,14.627c-6.662-23.416,1.738-58.621,36.012-88.052
	c54.585-46.871,104.59-50.234,156.773-50.419h18.578c0.001,0,0.001,0,0.002,0h0.131c11.451,0,24.597,3.555,24.597,31.278v63.459
	c0,19.294,11.082,34.548,28.921,39.809c12.8,3.776,27.714,1.787,41.999-5.594c15.28-7.895,29.682-21.861,41.649-40.387
	c32.984-51.062,15.4-120.57,5.26-150.537h8.223c7.495,18.906,29.348,77.934,38.621,145.031
	c-65.81,17.182-99.374,61.731-109.479,77.507H67.048V379.298z M424.748,446.17c-27.541,0-50.522-19.84-55.438-45.975h17.137
	c4.6,16.839,20.023,29.257,38.3,29.257s33.701-12.417,38.3-29.257h17.137C475.27,426.33,452.289,446.17,424.748,446.17z"/>
<path d="M261.795,304.7c-0.006-0.004-0.087-0.056-0.094-0.061c-4.844-3.119-11.28-1.714-14.409,3.124
	c-3.13,4.839-1.728,11.313,3.104,14.452c0.011,0.007,0.067,0.044,0.079,0.051c1.749,1.126,3.705,1.664,5.641,1.664
	c3.429,0,6.788-1.69,8.787-4.787C268.032,314.301,266.636,307.834,261.795,304.7z"/>
<path d="M113.566,65.833h137.749c5.771,0,10.449-4.678,10.449-10.449s-4.678-10.449-10.449-10.449H113.566
	c-5.771,0-10.449,4.678-10.449,10.449S107.796,65.833,113.566,65.833z"/>
<path d="M77.824,65.833h0.124c5.771,0,10.449-4.678,10.449-10.449s-4.678-10.449-10.449-10.449h-0.123
	c-5.771,0-10.449,4.678-10.449,10.449S72.053,65.833,77.824,65.833z"/>
<path d="M107.275,98.158h120.638c5.771,0,10.449-4.678,10.449-10.449c0-5.771-4.678-10.449-10.449-10.449H107.275
	c-5.771,0-10.449,4.678-10.449,10.449C96.826,93.48,101.504,98.158,107.275,98.158z"/>
<path d="M83.591,87.709c0-5.771-4.678-10.449-10.449-10.449H10.449C4.678,77.261,0,81.939,0,87.709
	c0,5.771,4.678,10.449,10.449,10.449h62.693C78.913,98.158,83.591,93.48,83.591,87.709z"/>
</svg>